<svg width="150" height="40" viewBox="0 0 150 40" fill="none" xmlns="http://www.w3.org/2000/svg">
<g clip-path="url(#clip0_9_25)">
<path d="M95.3315 25.0353C92.7197 25.0353 90.5943 22.5618 90.5943 19.5237C90.5943 16.4849 92.7197 14.012 95.3315 14.012C97.9434 14.012 100.068 16.4849 100.068 19.5237C100.068 22.5922 97.9173 25.0353 95.3315 25.0353ZM95.3315 10.7345C91.1578 10.7345 87.7777 14.6677 87.7777 19.5237C87.7777 24.3797 91.1578 28.3122 95.3315 28.3122C99.5053 28.3122 102.885 24.3797 102.885 19.5237C102.885 14.6974 99.5053 10.7345 95.3315 10.7345ZM86.0877 25.4819H86.7023V28.7885H86.0877C82.8358 28.7885 80.1724 25.6903 80.1724 21.9068V6.80189H83.015V11.2113H86.6762V14.5186H83.015V21.9365C83.015 23.8731 84.3977 25.4819 86.0877 25.4819ZM120.707 25.0353C118.095 25.0353 115.97 22.5618 115.97 19.5237C115.97 16.4849 118.095 14.012 120.707 14.012C123.319 14.012 125.444 16.4849 125.444 19.5237C125.418 22.5922 123.293 25.0353 120.707 25.0353ZM120.707 10.7345C116.533 10.7345 113.153 14.6677 113.153 19.5237C113.153 24.3797 116.533 28.3122 120.707 28.3122C124.88 28.3122 128.26 24.3797 128.26 19.5237C128.26 14.6974 124.88 10.7345 120.707 10.7345ZM142.447 25.0353C139.834 25.0353 137.71 22.5618 137.71 19.5237C137.71 16.4849 139.834 14.012 142.446 14.012C145.058 14.012 147.183 16.4849 147.183 19.5237C147.183 22.5922 145.033 25.0347 142.446 25.0347M142.446 10.7345C138.272 10.7345 134.892 14.6677 134.892 19.5237C134.892 24.3797 138.272 28.3122 142.446 28.3122C144.29 28.3122 145.98 27.5372 147.286 26.2563V27.9844H150V19.7915V19.523C150 14.6967 146.62 10.7345 142.446 10.7345ZM110.695 10.7351H112.052V14.0417H110.695C109.005 14.0417 107.622 15.6511 107.622 17.6168V28.1038H104.78V17.6168C104.78 13.8333 107.443 10.7351 110.695 10.7351ZM130.156 6.35534H132.998V28.0438H130.156V6.35534ZM61.2755 18.0633V28.5207H58.4329V18.0633C58.4329 16.097 57.0501 14.4883 55.3601 14.4883C53.6707 14.4883 52.2874 16.097 52.2874 18.0633V28.52H49.4454V18.0633C49.4454 16.097 48.062 14.4883 46.3726 14.4883C44.6831 14.4883 43.2998 16.097 43.2998 18.0633V28.52H40.4578V18.0633C40.4578 14.2792 43.1207 11.181 46.3471 11.181C48.1652 11.181 49.7526 12.1045 50.8536 13.5945C51.9546 12.1045 53.542 11.181 55.3607 11.181C58.612 11.181 61.2755 14.2792 61.2755 18.0633ZM70.7494 25.4819C68.1376 25.4819 66.0122 23.009 66.0122 19.9702C66.0122 16.9314 68.1382 14.4586 70.7494 14.4586C73.3613 14.4586 75.4867 16.9321 75.4867 19.9702C75.4867 23.009 73.3358 25.4819 70.7494 25.4819ZM70.7494 11.1817C66.5502 11.1817 63.1696 15.1142 63.1696 19.9702C63.1696 24.8262 66.5502 28.7588 70.7239 28.7588C74.8977 28.7588 78.2777 24.8262 78.2777 19.9702C78.3032 15.1439 74.9232 11.1817 70.7494 11.1817ZM17.1814 0.00994873C7.6819 0.00994873 0 8.94759 0 19.9999C0 31.0522 7.6819 39.9905 17.1814 39.9905C26.6814 39.9905 34.3633 31.0529 34.3633 19.9999C34.3633 9.00695 26.7835 0.00994873 17.1814 0.00994873Z" fill="black"/>
<path d="M22.303 4.92505L17.2074 24.5879L17.1814 24.6175L17.1303 24.5879L12.0348 4.92505L5.45386 30.0995H6.68296C6.68296 30.0995 7.50274 25.7197 8.85997 23.0985C9.60265 21.6684 10.7291 20.5062 12.2394 20.5359C13.3149 20.5662 14.2367 21.2509 15.3893 23.1281C15.645 23.545 15.9523 24.2303 16.2595 24.886C16.7465 25.9875 17.1559 27.1201 17.1559 27.1201C17.1559 27.1201 18.2313 24.26 18.923 23.1281C20.075 21.2509 20.9968 20.5662 22.0723 20.5359C23.5831 20.5062 24.7351 21.6684 25.4523 23.0985C26.8095 25.7197 27.6293 30.0995 27.6293 30.0995H28.8579L22.303 4.92505Z" fill="white"/>
</g>
<defs>
<clipPath id="clip0_9_25">
<rect width="150" height="40" fill="white"/>
</clipPath>
</defs>
</svg>
